<?xml version="1.0" encoding="UTF-8" standalone="no"?>
<svg
   xmlns:dc="http://purl.org/dc/elements/1.1/"
   xmlns:cc="http://creativecommons.org/ns#"
   xmlns:rdf="http://www.w3.org/1999/02/22-rdf-syntax-ns#"
   xmlns:svg="http://www.w3.org/2000/svg"
   xmlns="http://www.w3.org/2000/svg"
   xmlns:sodipodi="http://sodipodi.sourceforge.net/DTD/sodipodi-0.dtd"
   xmlns:inkscape="http://www.inkscape.org/namespaces/inkscape"
   version="1.1"
   width="170.0787"
   height="170.0787"
   id="svg52"
   sodipodi:docname="quartzito-eco-aventura-mini.svg"
   inkscape:version="0.92.5 (2060ec1f9f, 2020-04-08)"
   inkscape:export-filename="/home/edward/java/edd/quartzito-eco-aventura/src/assets/quartzito-eco-aventura-mini.png"
   inkscape:export-xdpi="96"
   inkscape:export-ydpi="96">
  <metadata
     id="metadata58">
    <rdf:RDF>
      <cc:Work
         rdf:about="">
        <dc:format>image/svg+xml</dc:format>
        <dc:type
           rdf:resource="http://purl.org/dc/dcmitype/StillImage" />
        <dc:title />
      </cc:Work>
    </rdf:RDF>
  </metadata>
  <defs
     id="defs56" />
  <sodipodi:namedview
     pagecolor="#ffffff"
     bordercolor="#666666"
     borderopacity="1"
     objecttolerance="10"
     gridtolerance="10"
     guidetolerance="10"
     inkscape:pageopacity="0"
     inkscape:pageshadow="2"
     inkscape:window-width="1868"
     inkscape:window-height="1016"
     id="namedview54"
     showgrid="false"
     inkscape:zoom="2.7751858"
     inkscape:cx="5.7905584"
     inkscape:cy="74.633097"
     inkscape:window-x="1418"
     inkscape:window-y="27"
     inkscape:window-maximized="1"
     inkscape:current-layer="svg52" />
  <g
     id="g3813"
     transform="matrix(1.0779287,0,0,1.0779287,-5.3979072,-3.928257)">
    <path
       inkscape:connector-curvature="0"
       id="path2"
       style="fill:#ffc700;fill-rule:evenodd;stroke-width:1.35648298"
       d="M 90.667743,32.89484 85.915158,6.2410176 80.857924,32.803551 Z" />
    <path
       inkscape:connector-curvature="0"
       id="path4"
       style="fill:#00a1bc;fill-rule:evenodd;stroke-width:1.35648298"
       d="m 105.67336,93.403497 h 8.74111 l 4.37083,9.342543 v 43.69084 h -8.45001 v -43.141 z m -37.586961,0 h 8.741382 l 4.370551,9.342543 v 43.69084 H 72.74833 v -43.141 z m 12.528895,0 h 8.741382 l 4.370551,9.342543 v 43.69084 h -8.450002 v -43.141 z m 12.528895,0 h 8.741381 l 4.37055,9.342543 v 43.69084 h -8.449721 v -43.141 z" />
    <path
       inkscape:connector-curvature="0"
       id="path6"
       style="fill:#00a1bc;fill-rule:evenodd;stroke-width:1.35648298"
       d="m 35.301189,150.12558 c 5.735397,-3.72584 12.408628,-4.05029 19.732224,-3.20973 11.628077,1.33482 24.895896,5.60709 38.651909,3.8672 -9.197308,2.54594 -19.363739,1.64794 -27.486324,0.3147 -13.725422,-2.25258 -15.963567,-4.12038 -30.897809,-0.97217 z" />
    <path
       inkscape:connector-curvature="0"
       id="path8"
       style="fill:#37b385;fill-rule:evenodd;stroke-width:1.35648298"
       d="m 77.441829,158.3803 c -6.663872,-1.23312 -9.541209,-3.30365 -15.146421,-5.10861 10.291029,1.48025 17.46698,2.84852 25.480891,2.47705 10.770282,-0.49952 22.732901,-4.09759 33.599421,-5.49801 12.73381,-1.64096 18.18384,-0.73387 27.74893,2.19659 -7.05275,-1.14447 -14.35791,-1.94973 -23.01464,-0.9333 -13.7901,1.61948 -35.916771,9.2257 -48.668181,6.86628 z" />
    <path
       inkscape:connector-curvature="0"
       id="path10"
       style="fill:#ffc700;fill-rule:evenodd;stroke-width:1.35648298"
       d="m 85.714294,40.47339 c 23.735826,0 42.977626,18.14605 42.977626,40.530508 0,7.209048 -1.99845,13.977591 -5.49794,19.842862 l -5.47852,-10.000139 c 1.07109,-3.098945 1.65232,-6.40655 1.65232,-9.842723 0,-17.528237 -15.06708,-31.737409 -33.653486,-31.737409 -18.586122,0 -33.653342,14.209172 -33.653342,31.737409 0,11.275021 6.235323,21.175442 15.630982,26.805702 v 9.99632 C 52.959255,111.37922 42.736951,97.317981 42.736951,81.003898 c 0,-22.384458 19.241656,-40.530508 42.977343,-40.530508 z" />
    <path
       inkscape:connector-curvature="0"
       id="path12"
       style="fill:#ffc700;fill-rule:evenodd;stroke-width:1.35648298"
       d="m 36.386249,74.559674 -20.978897,4.396747 21.173057,2.747753 z" />
    <path
       inkscape:connector-curvature="0"
       id="path14"
       style="fill:#ffc700;fill-rule:evenodd;stroke-width:1.35648298"
       d="m 134.84832,81.704569 17.52942,-3.689094 -18.01496,-4.188219 z" />
    <path
       inkscape:connector-curvature="0"
       id="path16"
       style="fill:#ffc700;fill-rule:evenodd;stroke-width:1.35648298"
       d="m 129.62556,58.192899 22.76531,-15.939312 -26.55352,9.57373 z" />
    <path
       inkscape:connector-curvature="0"
       id="path18"
       style="fill:#ffc700;fill-rule:evenodd;stroke-width:1.35648298"
       d="M 113.70515,40.660183 120.05641,22.661275 106.5665,36.813276 Z" />
    <path
       inkscape:connector-curvature="0"
       id="path20"
       style="fill:#ffc700;fill-rule:evenodd;stroke-width:1.35648298"
       d="M 64.341769,36.716718 49.200796,21.478736 56.849715,41.02626 Z" />
    <path
       inkscape:connector-curvature="0"
       id="path22"
       style="fill:#ffc700;fill-rule:evenodd;stroke-width:1.35648298"
       d="M 45.105701,52.651024 18.57062,43.016698 41.123748,59.566578 Z" />
    <path
       inkscape:connector-curvature="0"
       id="path24"
       style="fill:#ffc700;fill-rule:evenodd;stroke-width:1.35648298"
       d="M 39.599384,97.348806 17.08453,113.95362 43.439558,105.10717 Z" />
  </g>
</svg>
