<?xml version="1.0" encoding="UTF-8" standalone="no"?>
<svg
   xmlns:dc="http://purl.org/dc/elements/1.1/"
   xmlns:cc="http://creativecommons.org/ns#"
   xmlns:rdf="http://www.w3.org/1999/02/22-rdf-syntax-ns#"
   xmlns:svg="http://www.w3.org/2000/svg"
   xmlns="http://www.w3.org/2000/svg"
   xmlns:sodipodi="http://sodipodi.sourceforge.net/DTD/sodipodi-0.dtd"
   xmlns:inkscape="http://www.inkscape.org/namespaces/inkscape"
   version="1.1"
   width="170.0787"
   height="170.0787"
   id="svg52"
   viewBox="0 0 170.0787 170.0787"
   sodipodi:docname="quartzito -eo-aventura.svg"
   inkscape:version="0.92.5 (2060ec1f9f, 2020-04-08)">
  <metadata
     id="metadata58">
    <rdf:RDF>
      <cc:Work
         rdf:about="">
        <dc:format>image/svg+xml</dc:format>
        <dc:type
           rdf:resource="http://purl.org/dc/dcmitype/StillImage" />
        <dc:title></dc:title>
      </cc:Work>
    </rdf:RDF>
  </metadata>
  <defs
     id="defs56" />
  <sodipodi:namedview
     pagecolor="#ffffff"
     bordercolor="#666666"
     borderopacity="1"
     objecttolerance="10"
     gridtolerance="10"
     guidetolerance="10"
     inkscape:pageopacity="0"
     inkscape:pageshadow="2"
     inkscape:window-width="1868"
     inkscape:window-height="1016"
     id="namedview54"
     showgrid="false"
     inkscape:zoom="1.3875929"
     inkscape:cx="85.039352"
     inkscape:cy="85.039352"
     inkscape:window-x="1418"
     inkscape:window-y="27"
     inkscape:window-maximized="1"
     inkscape:current-layer="svg52" />
  <path
     d="M 87.6638,24.3127 84.2614,4.079 80.6409,24.2434 Z"
     style="fill:#ffc700;fill-rule:evenodd"
     id="path2"
     inkscape:connector-curvature="0" />
  <path
     d="m 98.4064,70.2466 h 6.2578 l 3.1291,7.0922 v 33.167 h -6.0494 V 77.7562 Z m -26.9087,0 h 6.258 l 3.1289,7.0922 v 33.167 H 74.8352 V 77.7562 Z m 8.9695,0 h 6.258 l 3.1289,7.0922 v 33.167 H 83.8047 V 77.7562 Z m 8.9695,0 h 6.258 l 3.1289,7.0922 v 33.167 H 92.7744 V 77.7562 Z"
     style="fill:#00a1bc;fill-rule:evenodd"
     id="path4"
     inkscape:connector-curvature="0" />
  <path
     d="m 48.0266,113.306 c 4.106,-2.8284 8.8834,-3.0747 14.1264,-2.4366 8.3246,1.0133 17.8231,4.2565 27.6711,2.9357 -6.5844,1.9327 -13.8626,1.251 -19.6776,0.2389 -9.8261,-1.71 -11.4284,-3.1279 -22.1199,-0.738 z"
     style="fill:#00a1bc;fill-rule:evenodd"
     id="path6"
     inkscape:connector-curvature="0" />
  <path
     d="m 78.1953,119.5724 c -4.7707,-0.9361 -6.8306,-2.5079 -10.8434,-3.8781 7.3674,1.1237 12.5047,2.1624 18.2419,1.8804 7.7105,-0.3792 16.2746,-3.1106 24.054,-4.1737 9.1162,-1.2457 13.0179,-0.5571 19.8656,1.6675 -5.0491,-0.8688 -10.2789,-1.4801 -16.4763,-0.7085 -9.8724,1.2294 -25.713,7.0035 -34.8418,5.2124 z"
     style="fill:#37b385;fill-rule:evenodd"
     id="path8"
     inkscape:connector-curvature="0" />
  <path
     d="m 84.1176,30.0658 c 16.9926,0 30.7679,13.7752 30.7679,30.7679 0,5.4726 -1.4307,10.6108 -3.936,15.0633 l -3.9221,-7.5914 c 0.7668,-2.3525 1.1829,-4.8634 1.1829,-7.4719 0,-13.3062 -10.7866,-24.0928 -24.0927,-24.0928 -13.3059,0 -24.0926,10.7866 -24.0926,24.0928 0,8.5592 4.4639,16.0749 11.1903,20.349 v 7.5885 C 60.6681,83.8925 53.3499,73.2182 53.3499,60.8337 c 0,-16.9927 13.7752,-30.7679 30.7677,-30.7679 z"
     style="fill:#ffc700;fill-rule:evenodd"
     id="path10"
     inkscape:connector-curvature="0" />
  <path
     d="m 48.8034,55.9417 -15.0189,3.3377 15.1579,2.0859 z"
     style="fill:#ffc700;fill-rule:evenodd"
     id="path12"
     inkscape:connector-curvature="0" />
  <path
     d="m 119.2929,61.3656 12.5494,-2.8005 -12.897,-3.1794 z"
     style="fill:#ffc700;fill-rule:evenodd"
     id="path14"
     inkscape:connector-curvature="0" />
  <path
     d="m 115.5539,43.5172 16.2978,-12.1 -19.0098,7.2677 z"
     style="fill:#ffc700;fill-rule:evenodd"
     id="path16"
     inkscape:connector-curvature="0" />
  <path
     d="m 104.1564,30.2076 4.5469,-13.6635 -9.6575,10.7432 z"
     style="fill:#ffc700;fill-rule:evenodd"
     id="path18"
     inkscape:connector-curvature="0" />
  <path
     d="M 68.8169,27.214 57.9774,15.6464 63.4533,30.4855 Z"
     style="fill:#ffc700;fill-rule:evenodd"
     id="path20"
     inkscape:connector-curvature="0" />
  <path
     d="M 55.0457,39.3102 36.0491,31.9965 52.195,44.56 Z"
     style="fill:#ffc700;fill-rule:evenodd"
     id="path22"
     inkscape:connector-curvature="0" />
  <path
     d="M 51.1037,73.2416 34.9852,85.8468 53.8529,79.1312 Z"
     style="fill:#ffc700;fill-rule:evenodd"
     id="path24"
     inkscape:connector-curvature="0" />
  <path
     d="m 39.8661,147.3421 c -0.0525,0.8094 -0.2176,1.5486 -0.4936,2.2154 -0.341,0.8229 -0.8068,1.5226 -1.395,2.0968 -0.5882,0.5738 -1.2834,1.019 -2.0836,1.3328 -0.8001,0.3139 -1.6717,0.4715 -2.6132,0.4715 -0.9418,0 -1.8134,-0.163 -2.6134,-0.4876 -0.8001,-0.3249 -1.4951,-0.7802 -2.0836,-1.3654 -0.5884,-0.5851 -1.0481,-1.29 -1.3773,-2.1133 -0.3293,-0.8231 -0.4943,-1.723 -0.4943,-2.6982 v -2.8933 c -1.2949,1.6039 -2.99,2.4055 -5.0853,2.4055 -1.1301,0 -2.1365,-0.2004 -3.0194,-0.6012 -0.8829,-0.401 -1.6304,-0.9698 -2.2425,-1.7067 -0.6121,-0.7368 -1.0776,-1.6098 -1.395,-2.6171 -0.3174,-1.0074 -0.4766,-2.1185 -0.4766,-3.3321 0,-1.3437 0.1886,-2.5468 0.5651,-3.6087 0.3762,-1.0613 0.8945,-1.9613 1.5536,-2.6981 0.6593,-0.7369 1.4484,-1.3008 2.3663,-1.6906 0.9176,-0.3895 1.9304,-0.5853 3.037,-0.5853 2.1659,0 3.7786,0.7912 4.8381,2.3735 l 0.0353,-1.9506 h 4.4144 v 16.9372 c 0,1.1046 0.1946,1.8645 0.5826,2.2756 0.388,0.4116 0.9476,0.6178 1.6775,0.6178 0.6828,0 1.1893,-0.228 1.5185,-0.6828 0.2631,-0.3634 0.4219,-0.9213 0.4745,-1.6731 0,0 4.3099,-0.022 4.3099,-0.022 z m -16.7562,-4.6443 c 2.5662,0 3.8495,-1.7336 3.8495,-5.2013 0,-1.3653 -0.3712,-2.4711 -1.1125,-3.3159 -0.7411,-0.8449 -1.6657,-1.2677 -2.7722,-1.2677 -1.1537,0 -2.0953,0.4495 -2.8253,1.3491 -0.7298,0.8993 -1.0946,2.0642 -1.0946,3.4945 0,3.2945 1.3185,4.9413 3.9551,4.9413 z m 21.1536,3.1861 v -2.2431 c -1.1771,1.7771 -2.9781,2.6655 -5.4031,2.6655 -0.8712,0 -1.6657,-0.1407 -2.3837,-0.4224 -0.7181,-0.2817 -1.3365,-0.6832 -1.8541,-1.2027 -0.5176,-0.5198 -0.9246,-1.1384 -1.2183,-1.8532 -0.2939,-0.7147 -0.4414,-1.5171 -0.4414,-2.4055 v -10.5331 h 4.5909 v 9.8826 c 0,1.9933 0.977,2.9908 2.9311,2.9908 1.1772,0 2.066,-0.3412 2.6663,-1.0238 0.6003,-0.6826 0.9004,-1.5551 0.9004,-2.6171 v -9.2325 h 4.5558 v 15.9945 z m 16.9158,-7.8347 c -0.2356,0.2168 -0.5771,0.3904 -1.024,0.5201 -0.4469,0.1296 -1.0949,0.2708 -1.9423,0.4226 -1.3186,0.2384 -2.2249,0.5417 -2.7194,0.9103 -0.4944,0.3685 -0.7416,0.8993 -0.7416,1.593 0,1.1919 0.7416,1.7878 2.225,1.7878 0.5884,0 1.1363,-0.0923 1.642,-0.2761 0.5058,-0.184 0.9421,-0.4341 1.3066,-0.7479 0.3644,-0.3138 0.6598,-0.6829 0.883,-1.1051 0.2231,-0.4224 0.3353,-0.8725 0.3353,-1.3492 z m 0.3177,7.8347 c -0.1411,-0.4119 -0.2351,-0.8887 -0.2823,-1.4306 -0.5416,0.5637 -1.2597,1.0134 -2.1543,1.3494 -0.8944,0.3359 -1.9305,0.5036 -3.1077,0.5036 -2.001,0 -3.4673,-0.4067 -4.3966,-1.219 -0.9297,-0.8122 -1.395,-1.8691 -1.395,-3.1696 0,-1.1485 0.2006,-2.0647 0.6002,-2.747 0.4,-0.6826 0.954,-1.2195 1.6598,-1.6093 0.7059,-0.3898 1.5486,-0.6775 2.5252,-0.8615 0.9767,-0.1837 2.0424,-0.3523 3.196,-0.5039 1.1536,-0.1516 1.9307,-0.3526 2.3307,-0.6012 0.3998,-0.2491 0.6004,-0.6558 0.6004,-1.2192 0,-0.5202 -0.2654,-0.927 -0.7947,-1.2191 -0.5292,-0.2923 -1.2417,-0.4388 -2.1364,-0.4388 -1.0596,0 -1.8191,0.217 -2.278,0.65 -0.4587,0.4332 -0.7474,1.0079 -0.8651,1.7229 H 50.726 c 0.0236,-0.8233 0.1708,-1.5819 0.4416,-2.2754 0.2708,-0.6934 0.7065,-1.2898 1.3067,-1.7881 0.6001,-0.4984 1.3834,-0.8838 2.3482,-1.154 0.965,-0.2708 2.1426,-0.4066 3.5317,-0.4066 1.3655,0 2.5255,0.1415 3.4784,0.4229 0.9531,0.281 1.719,0.6883 2.2955,1.2192 0.5763,0.5304 0.9946,1.1919 1.2535,1.983 0.2589,0.791 0.3885,1.6857 0.3885,2.6818 v 10.1105 z m 6.2862,0 v -15.9945 h 4.3085 v 1.9179 c 0.3767,-0.5419 0.771,-0.9645 1.183,-1.2679 0.412,-0.3033 0.8363,-0.5366 1.2714,-0.6989 0.4351,-0.1621 0.877,-0.2658 1.3242,-0.309 0.4471,-0.043 0.9065,-0.065 1.3774,-0.065 h 0.6002 v 4.324 c -0.4237,-0.065 -0.8476,-0.0975 -1.2713,-0.0975 -2.8017,0 -4.2025,1.2901 -4.2025,3.8684 v 8.3225 z M 88.9721,135.351 h 4.2731 v 4.5512 c 0,0.8446 -0.1358,1.6527 -0.4061,2.4219 -0.2705,0.7689 -0.6948,1.4526 -1.2713,2.0482 -0.5764,0.5955 -1.3071,1.0676 -2.1896,1.4139 -0.8824,0.3464 -1.9364,0.5201 -3.1607,0.5201 -1.2713,0 -2.3545,-0.1737 -3.249,-0.5201 -0.894,-0.3463 -1.6304,-0.8125 -2.2071,-1.3977 -0.5766,-0.5851 -0.995,-1.2686 -1.2536,-2.0481 -0.2586,-0.7799 -0.3884,-1.6039 -0.3884,-2.4708 v -14.3042 h 4.5201 v 4.324 h 9.6057 v 2.9906 h -9.6057 v 6.5672 c 0,1.0178 0.2064,1.8045 0.6181,2.3568 0.4116,0.5522 1.0889,0.829 2.0307,0.829 0.9181,0 1.5951,-0.2712 2.0305,-0.8129 0.4356,-0.5419 0.6533,-1.3111 0.6533,-2.3081 z"
     style="fill:#00a1bc;fill-rule:evenodd"
     id="path26"
     inkscape:connector-curvature="0" />
  <path
     d="m 94.6746,145.8839 v -3.2509 l 8.8638,-9.3954 h -8.2636 v -3.3482 h 14.1259 v 3.4135 l -8.8641,9.135 h 9.1113 v 3.446 z m 16.4212,0 v -15.9945 h 4.5911 v 15.9945 z m 0,-17.9126 v -3.9337 h 4.5911 v 3.9337 z m 16.5272,7.3797 h 4.2732 v 4.5512 c 0,0.8452 -0.1354,1.6525 -0.4062,2.4219 -0.271,0.7693 -0.6947,1.4521 -1.2714,2.0482 -0.5768,0.5959 -1.3066,1.0671 -2.1895,1.4139 -0.8828,0.347 -1.9362,0.5201 -3.1607,0.5201 -1.2714,0 -2.3541,-0.1731 -3.249,-0.5201 -0.8946,-0.3468 -1.6303,-0.8125 -2.2069,-1.3977 -0.5771,-0.5851 -0.9949,-1.2678 -1.2539,-2.0481 -0.259,-0.7802 -0.3884,-1.6039 -0.3884,-2.4708 v -14.3042 h 4.5204 v 4.324 h 9.6056 v 2.9906 h -9.6056 v 6.5672 c 0,1.0185 0.2058,1.8042 0.6179,2.3568 0.412,0.5525 1.0889,0.829 2.0306,0.829 0.9182,0 1.5951,-0.2712 2.0305,-0.8129 0.4357,-0.5419 0.6534,-1.3111 0.6534,-2.3081 z m 14.691,7.4118 c 2.8017,0 4.2025,-1.6253 4.2025,-4.8762 0,-3.2292 -1.4008,-4.844 -4.2025,-4.844 -2.8016,0 -4.2024,1.6148 -4.2024,4.844 0,3.2509 1.4008,4.8762 4.2024,4.8762 z m 0,3.5435 c -1.4125,0 -2.6721,-0.2057 -3.7786,-0.6176 -1.1066,-0.4117 -2.0424,-0.9861 -2.8077,-1.723 -0.765,-0.7368 -1.3478,-1.6253 -1.748,-2.6656 -0.4001,-1.0404 -0.6002,-2.1782 -0.6002,-3.4135 0,-1.257 0.2058,-2.4059 0.6179,-3.4461 0.412,-1.0401 1.0065,-1.9286 1.7834,-2.6657 0.7769,-0.7369 1.7128,-1.3057 2.8074,-1.7069 1.0949,-0.4008 2.3368,-0.6014 3.7258,-0.6014 1.3655,0 2.5897,0.2006 3.6728,0.6014 1.083,0.4012 2.0069,0.9646 2.7721,1.6906 0.7651,0.7261 1.3539,1.6092 1.7657,2.6498 0.412,1.0402 0.6181,2.1997 0.6181,3.4783 0,1.2787 -0.2061,2.4328 -0.6181,3.4623 -0.4118,1.0295 -1.0006,1.9127 -1.7657,2.6495 -0.7652,0.7369 -1.695,1.3057 -2.7897,1.7067 -1.095,0.4008 -2.3132,0.6012 -3.6552,0.6012 z"
     style="fill:#ffc700;fill-rule:evenodd"
     id="path28"
     inkscape:connector-curvature="0" />
  <path
     d="m 46.8898,162.5174 m 3.3172,-6.1511 c -0.2869,0 -0.5423,0.0449 -0.7814,0.1497 -0.2393,0.1047 -0.4624,0.2394 -0.6379,0.419 -0.1755,0.1796 -0.319,0.3891 -0.4308,0.6136 -0.1115,0.2395 -0.1752,0.4939 -0.2073,0.7634 h 3.7957 c 0,-0.2695 -0.0318,-0.5239 -0.1115,-0.7634 -0.0798,-0.2394 -0.1914,-0.4489 -0.335,-0.6136 -0.1436,-0.1796 -0.3349,-0.3143 -0.5422,-0.419 -0.2233,-0.1048 -0.4784,-0.1497 -0.7496,-0.1497 z m 0.6219,5.343 c 0.3988,0 0.7656,-0.03 1.1005,-0.0898 0.319,-0.0599 0.654,-0.1497 0.9729,-0.2544 v 0.9428 c -0.2551,0.1198 -0.5901,0.2095 -0.9729,0.2843 -0.3987,0.0749 -0.8133,0.1048 -1.2598,0.1048 -0.5264,0 -1.0207,-0.0598 -1.4833,-0.1945 -0.4625,-0.1198 -0.8771,-0.3293 -1.2121,-0.6136 -0.3348,-0.2844 -0.606,-0.6436 -0.7973,-1.1076 -0.1915,-0.4489 -0.2871,-1.0027 -0.2871,-1.6463 0,-0.6285 0.0956,-1.1822 0.2871,-1.6462 0.1753,-0.4641 0.4307,-0.8532 0.7336,-1.1673 0.319,-0.2994 0.6699,-0.5388 1.0845,-0.6885 0.3988,-0.1647 0.8292,-0.2396 1.2598,-0.2396 0.4148,0 0.8135,0.06 1.1642,0.1946 0.3668,0.1347 0.6699,0.3293 0.941,0.6137 0.2712,0.2693 0.4785,0.6285 0.622,1.0776 0.1594,0.4339 0.2393,0.9578 0.2393,1.5715 0,0.0598 0,0.1046 0,0.1495 0,0.045 -0.016,0.1347 -0.016,0.2844 h -5.1194 c 0,0.434 0.0797,0.8083 0.2233,1.1225 0.1435,0.3143 0.335,0.5537 0.5741,0.7482 0.2552,0.1947 0.5423,0.3293 0.8773,0.4192 0.3187,0.0897 0.6855,0.1347 1.0683,0.1347 z"
     style="fill:#37b385;fill-rule:evenodd"
     id="path30"
     inkscape:connector-curvature="0" />
  <path
     d="m 56.5807,162.5174 m 3.6043,-7.124 c 0.3669,0 0.7016,0.0301 1.0366,0.1049 0.319,0.0747 0.6061,0.1646 0.8292,0.2993 v 0.9279 c -0.3189,-0.1198 -0.6219,-0.2095 -0.893,-0.2545 -0.2871,-0.0598 -0.5581,-0.0897 -0.8453,-0.0897 -0.3029,0 -0.606,0.0448 -0.893,0.1347 -0.3031,0.0897 -0.5582,0.2544 -0.7974,0.4639 -0.2393,0.2095 -0.4306,0.4939 -0.5582,0.8381 -0.1435,0.3443 -0.2234,0.7782 -0.2234,1.3021 0,0.3741 0.0481,0.7184 0.1595,1.0327 0.1117,0.3143 0.2712,0.5836 0.4785,0.8231 0.2073,0.2246 0.4784,0.4042 0.7814,0.5387 0.3189,0.1348 0.6857,0.1947 1.1006,0.1947 0.3029,0 0.606,-0.03 0.9089,-0.0898 0.319,-0.0599 0.606,-0.1497 0.9091,-0.2544 v 0.9428 c -0.0956,0.0449 -0.2073,0.0898 -0.3508,0.1348 -0.1437,0.0598 -0.3031,0.1047 -0.4784,0.1346 -0.1595,0.0299 -0.351,0.0599 -0.5423,0.0898 -0.1914,0.015 -0.3828,0.0299 -0.5742,0.0299 -0.4945,0 -0.9729,-0.0747 -1.4194,-0.2095 -0.4306,-0.1497 -0.8292,-0.3592 -1.1642,-0.6585 -0.3189,-0.2843 -0.5901,-0.6585 -0.7815,-1.1075 -0.1913,-0.4489 -0.287,-0.9728 -0.287,-1.5865 0,-0.4638 0.0478,-0.868 0.1595,-1.2422 0.0957,-0.3592 0.2392,-0.6885 0.4146,-0.9578 0.1755,-0.2844 0.3828,-0.5089 0.6061,-0.7034 0.2391,-0.1946 0.4945,-0.3592 0.7654,-0.479 0.2711,-0.1346 0.5423,-0.2244 0.8294,-0.2693 0.287,-0.0598 0.5581,-0.0899 0.8293,-0.0899 z"
     style="fill:#37b385;fill-rule:evenodd"
     id="path32"
     inkscape:connector-curvature="0" />
  <path
     d="m 65.3309,162.5174 m 5.7731,-3.4721 c 0,-0.4191 -0.0478,-0.8082 -0.1595,-1.1375 -0.1116,-0.3292 -0.2711,-0.6136 -0.4784,-0.853 -0.1913,-0.2246 -0.4307,-0.4042 -0.7176,-0.5238 -0.2712,-0.1198 -0.5741,-0.1796 -0.8932,-0.1796 -0.335,0 -0.6379,0.0598 -0.9091,0.1796 -0.287,0.1196 -0.5102,0.2992 -0.7175,0.5238 -0.2073,0.2394 -0.351,0.5238 -0.4627,0.853 -0.1114,0.3293 -0.1753,0.7184 -0.1753,1.1375 0,0.434 0.0639,0.8081 0.1753,1.1374 0.1117,0.3442 0.2554,0.6287 0.4627,0.8531 0.2073,0.2245 0.4464,0.4041 0.7175,0.5238 0.2872,0.1197 0.5903,0.1796 0.9091,0.1796 0.3349,0 0.622,-0.0599 0.909,-0.1796 0.2711,-0.1197 0.5105,-0.2993 0.7018,-0.5238 0.2073,-0.2244 0.3668,-0.5089 0.4784,-0.8531 0.1117,-0.3293 0.1595,-0.7034 0.1595,-1.1374 z m 1.26,0 c 0,0.5537 -0.0799,1.0477 -0.2553,1.4966 -0.1595,0.4491 -0.3987,0.8382 -0.7016,1.1523 -0.3031,0.3144 -0.6699,0.5689 -1.1005,0.7335 -0.4306,0.1795 -0.9091,0.2693 -1.4513,0.2693 -0.5423,0 -1.0366,-0.0898 -1.4832,-0.2693 -0.4306,-0.1646 -0.7974,-0.4191 -1.1003,-0.7335 -0.303,-0.3141 -0.5423,-0.7032 -0.7018,-1.1523 -0.1595,-0.4489 -0.2391,-0.9429 -0.2391,-1.4966 0,-0.5388 0.0796,-1.0477 0.2551,-1.4967 0.1595,-0.4489 0.3986,-0.8231 0.7018,-1.1524 0.3029,-0.3143 0.6697,-0.5687 1.1004,-0.7483 0.4465,-0.1646 0.9248,-0.2545 1.4671,-0.2545 0.5422,0 1.0367,0.0899 1.4673,0.2545 0.4306,0.1796 0.8132,0.434 1.1004,0.7483 0.3029,0.3293 0.5421,0.7035 0.7016,1.1524 0.1595,0.449 0.2394,0.9579 0.2394,1.4967 z"
     style="fill:#37b385;fill-rule:evenodd"
     id="path34"
     inkscape:connector-curvature="0" />
  <path
     d="m 82.108,162.5174 m 4.7685,-0.7632 h -0.0318 c -0.0959,0.1047 -0.2235,0.2245 -0.3668,0.3442 -0.1595,0.1047 -0.335,0.2095 -0.5264,0.2993 -0.2073,0.0898 -0.4147,0.1646 -0.654,0.2246 -0.2233,0.0448 -0.4784,0.0747 -0.7494,0.0747 -0.3509,0 -0.6859,-0.0448 -0.9889,-0.1496 -0.2869,-0.1047 -0.5582,-0.2544 -0.7655,-0.434 -0.2233,-0.1946 -0.3828,-0.4341 -0.5103,-0.7034 -0.1117,-0.2845 -0.1754,-0.5986 -0.1754,-0.9429 0,-0.3442 0.0637,-0.6585 0.2073,-0.928 0.1276,-0.2693 0.3191,-0.5087 0.5582,-0.7033 0.2393,-0.1796 0.5263,-0.3293 0.8612,-0.4341 0.3348,-0.1047 0.7016,-0.1497 1.1004,-0.1497 0.3827,0 0.7496,0.0299 1.0685,0.0899 0.3349,0.0598 0.6221,0.1347 0.8772,0.2244 h 0.0318 v -0.4789 c 0,-0.1946 -0.016,-0.3592 -0.0318,-0.5088 -0.032,-0.1497 -0.0798,-0.2694 -0.1437,-0.3892 -0.1274,-0.2394 -0.3507,-0.419 -0.6378,-0.5837 -0.303,-0.1496 -0.7018,-0.2244 -1.1961,-0.2244 -0.3827,0 -0.7337,0.0299 -1.0685,0.0897 -0.3189,0.0749 -0.6539,0.1497 -0.9729,0.2695 v -0.9429 c 0.1117,-0.0599 0.2712,-0.1048 0.4306,-0.1646 0.1755,-0.045 0.3508,-0.0899 0.5423,-0.1347 0.1753,-0.03 0.3826,-0.0599 0.5899,-0.0748 0.2075,-0.0151 0.4149,-0.0301 0.6222,-0.0301 0.7495,0 1.3556,0.1198 1.834,0.3742 0.4785,0.2395 0.8132,0.5688 1.0206,0.9878 0.0798,0.1497 0.1436,0.3293 0.1754,0.5089 0.032,0.1946 0.0479,0.3891 0.0479,0.6136 v 4.6395 H 87.004 Z m -0.0639,-2.2899 c -0.2233,-0.0598 -0.4784,-0.1198 -0.7974,-0.1646 -0.3029,-0.0598 -0.6379,-0.0898 -1.0047,-0.0898 -0.5104,0 -0.909,0.1047 -1.2119,0.2993 -0.2872,0.2095 -0.4307,0.5238 -0.4307,0.9579 0,0.2095 0.0319,0.4041 0.1117,0.5538 0.0636,0.1646 0.1753,0.2992 0.303,0.404 0.1274,0.1048 0.2711,0.1796 0.4464,0.2394 0.1755,0.045 0.351,0.0749 0.5583,0.0749 0.2551,0 0.4942,-0.0299 0.7177,-0.1048 0.2233,-0.0748 0.4306,-0.1646 0.5901,-0.2543 0.1755,-0.1049 0.3347,-0.1946 0.4464,-0.2994 0.1277,-0.0897 0.2233,-0.1647 0.2711,-0.2245 z"
     style="fill:#37b385;fill-rule:evenodd"
     id="path36"
     inkscape:connector-curvature="0" />
  <path
     d="m 91.1795,162.5174 m 3.4288,-1.1523 c 0.1754,-0.5089 0.4147,-1.1525 0.7177,-1.9307 l 1.4832,-3.8614 h 1.2121 l -2.791,6.9444 h -1.2598 l -2.791,-6.9444 h 1.2121 l 1.4671,3.8614 c 0.2871,0.7633 0.5264,1.4069 0.7177,1.9307 z"
     style="fill:#37b385;fill-rule:evenodd"
     id="path38"
     inkscape:connector-curvature="0" />
  <path
     d="m 100.7961,162.5174 m 3.3172,-6.1511 c -0.2871,0 -0.5423,0.0449 -0.7814,0.1497 -0.2393,0.1047 -0.4626,0.2394 -0.6379,0.419 -0.1755,0.1796 -0.3191,0.3891 -0.4308,0.6136 -0.1115,0.2395 -0.1753,0.4939 -0.2073,0.7634 h 3.7957 c 0,-0.2695 -0.0319,-0.5239 -0.1115,-0.7634 -0.0799,-0.2394 -0.1915,-0.4489 -0.335,-0.6136 -0.1436,-0.1796 -0.3349,-0.3143 -0.5422,-0.419 -0.2233,-0.1048 -0.4784,-0.1497 -0.7496,-0.1497 z m 0.6219,5.343 c 0.3986,0 0.7654,-0.03 1.1004,-0.0898 0.3191,-0.0599 0.6541,-0.1497 0.9728,-0.2544 v 0.9428 c -0.2551,0.1198 -0.59,0.2095 -0.9728,0.2843 -0.3986,0.0749 -0.8133,0.1048 -1.2598,0.1048 -0.5263,0 -1.0208,-0.0598 -1.4832,-0.1945 -0.4626,-0.1198 -0.8772,-0.3293 -1.2122,-0.6136 -0.3347,-0.2844 -0.6059,-0.6436 -0.7974,-1.1076 -0.1913,-0.4489 -0.2869,-1.0027 -0.2869,-1.6463 0,-0.6285 0.0956,-1.1822 0.2869,-1.6462 0.1755,-0.4641 0.4308,-0.8532 0.7337,-1.1673 0.319,-0.2994 0.67,-0.5388 1.0846,-0.6885 0.3986,-0.1647 0.8292,-0.2396 1.2598,-0.2396 0.4147,0 0.8134,0.06 1.1642,0.1946 0.3668,0.1347 0.6699,0.3293 0.9409,0.6137 0.2713,0.2693 0.4786,0.6285 0.6221,1.0776 0.1594,0.4339 0.2391,0.9578 0.2391,1.5715 0,0.0598 0,0.1046 0,0.1495 0,0.045 -0.0158,0.1347 -0.0158,0.2844 h -5.1194 c 0,0.434 0.0797,0.8083 0.2232,1.1225 0.1436,0.3143 0.3349,0.5537 0.5742,0.7482 0.2552,0.1947 0.5423,0.3293 0.8771,0.4192 0.3189,0.0897 0.6857,0.1347 1.0685,0.1347 z"
     style="fill:#37b385;fill-rule:evenodd"
     id="path40"
     inkscape:connector-curvature="0" />
  <path
     d="m 110.9175,162.5174 m 1.1643,-5.9864 h 0.0318 c 0.1277,-0.1497 0.2872,-0.2994 0.4467,-0.4491 0.1594,-0.1347 0.3507,-0.2544 0.542,-0.3592 0.2075,-0.1047 0.4307,-0.1796 0.67,-0.2394 0.2391,-0.0598 0.5104,-0.0899 0.7973,-0.0899 0.335,0 0.654,0.045 0.9411,0.1348 0.303,0.0898 0.5581,0.2244 0.7814,0.419 0.2073,0.1947 0.3826,0.449 0.5103,0.7634 0.1276,0.3141 0.1913,0.7034 0.1913,1.1523 v 4.6545 h -1.2121 v -4.4599 c 0,-0.5986 -0.1274,-1.0328 -0.3667,-1.3021 -0.2392,-0.2543 -0.6061,-0.3891 -1.0844,-0.3891 -0.4147,0 -0.8133,0.1047 -1.1961,0.3293 -0.3828,0.2095 -0.7178,0.5087 -1.0048,0.883 v 4.9388 h -1.2121 v -6.9444 h 0.941 z"
     style="fill:#37b385;fill-rule:evenodd"
     id="path42"
     inkscape:connector-curvature="0" />
  <path
     d="m 120.0478,162.5174 m 4.9597,0.015 c -0.1117,0.0299 -0.2712,0.0748 -0.4785,0.1048 -0.2231,0.0299 -0.4624,0.0598 -0.7654,0.0598 -0.3828,0 -0.7337,-0.0448 -1.0207,-0.1347 -0.2871,-0.0897 -0.5104,-0.2245 -0.7017,-0.3891 -0.1915,-0.1646 -0.335,-0.3741 -0.4306,-0.6136 -0.0957,-0.2395 -0.1435,-0.4939 -0.1435,-0.7933 v -4.2204 h -1.4193 v -0.9729 h 1.4193 v -1.9006 h 1.212 v 1.9006 h 2.2167 v 0.9729 h -2.2167 v 4.0409 c 0,0.1646 0.0319,0.3143 0.0797,0.449 0.0478,0.1347 0.1276,0.2544 0.2233,0.3592 0.1117,0.0897 0.2551,0.1796 0.4146,0.2245 0.1595,0.0598 0.3669,0.0898 0.606,0.0898 0.1595,0 0.319,-0.0151 0.5105,-0.045 0.1753,-0.0149 0.3348,-0.0448 0.4943,-0.0897 z"
     style="fill:#37b385;fill-rule:evenodd"
     id="path44"
     inkscape:connector-curvature="0" />
  <path
     d="m 128.2979,162.5174 m 3.0299,0.1796 c -0.3986,0 -0.7335,-0.0448 -1.0525,-0.1197 -0.303,-0.0748 -0.5741,-0.1796 -0.7972,-0.3292 -0.2393,-0.1347 -0.4306,-0.3143 -0.5901,-0.5089 -0.1595,-0.1945 -0.2872,-0.4042 -0.3828,-0.6436 -0.0798,-0.1796 -0.1276,-0.3741 -0.1595,-0.5836 -0.0319,-0.2095 -0.0478,-0.4341 -0.0478,-0.6735 v -4.2655 h 1.212 v 4.2505 c 0,0.3891 0.0638,0.7184 0.1595,0.9728 0.1274,0.2844 0.335,0.5238 0.6059,0.6884 0.2871,0.1647 0.6379,0.2545 1.0687,0.2545 0.4624,0 0.8292,-0.0898 1.1003,-0.2844 0.2872,-0.1796 0.4785,-0.4339 0.606,-0.7483 0.0798,-0.2244 0.1276,-0.5238 0.1276,-0.883 v -4.2505 h 1.212 v 4.2655 c 0,0.2394 -0.016,0.449 -0.0478,0.6585 -0.016,0.1946 -0.0638,0.3891 -0.1274,0.5538 -0.0959,0.2394 -0.2234,0.4638 -0.3828,0.6585 -0.1755,0.2095 -0.3668,0.3742 -0.6062,0.5237 -0.2391,0.1497 -0.5262,0.2545 -0.8452,0.3443 -0.3031,0.0749 -0.6699,0.1197 -1.0527,0.1197 z"
     style="fill:#37b385;fill-rule:evenodd"
     id="path46"
     inkscape:connector-curvature="0" />
  <path
     d="m 138.3872,162.5174 m 4.0668,-6.0163 h -0.0956 c -0.2872,0 -0.5741,0.0299 -0.8454,0.0747 -0.271,0.0449 -0.5261,0.1198 -0.7654,0.2245 -0.2553,0.0899 -0.4626,0.2244 -0.6539,0.3592 -0.2073,0.1497 -0.3668,0.3293 -0.4945,0.5238 v 4.8341 h -1.212 v -6.9444 h 0.9411 l 0.2391,1.1077 h 0.016 c 0.1275,-0.1796 0.2712,-0.3592 0.4465,-0.5089 0.1755,-0.1497 0.3669,-0.2844 0.5901,-0.4042 0.2073,-0.1197 0.4466,-0.2095 0.7017,-0.2843 0.2712,-0.0598 0.5422,-0.0899 0.8294,-0.0899 0.0478,0 0.0956,0 0.1595,0 0.0478,0 0.0956,0.015 0.1434,0.015 z"
     style="fill:#37b385;fill-rule:evenodd"
     id="path48"
     inkscape:connector-curvature="0" />
  <path
     d="m 145.0563,162.5174 m 4.7684,-0.7632 h -0.0318 c -0.0957,0.1047 -0.2234,0.2245 -0.3668,0.3442 -0.1595,0.1047 -0.335,0.2095 -0.5263,0.2993 -0.2073,0.0898 -0.4146,0.1646 -0.654,0.2246 -0.2232,0.0448 -0.4784,0.0747 -0.7494,0.0747 -0.3509,0 -0.6858,-0.0448 -0.989,-0.1496 -0.2869,-0.1047 -0.5581,-0.2544 -0.7654,-0.434 -0.2233,-0.1946 -0.3828,-0.4341 -0.5102,-0.7034 -0.1117,-0.2845 -0.1755,-0.5986 -0.1755,-0.9429 0,-0.3442 0.0638,-0.6585 0.2073,-0.928 0.1277,-0.2693 0.319,-0.5087 0.5581,-0.7033 0.2393,-0.1796 0.5263,-0.3293 0.8612,-0.4341 0.335,-0.1047 0.7018,-0.1497 1.1004,-0.1497 0.3828,0 0.7497,0.0299 1.0687,0.0899 0.3347,0.0598 0.6219,0.1347 0.877,0.2244 h 0.0318 v -0.4789 c 0,-0.1946 -0.0158,-0.3592 -0.0318,-0.5088 -0.0318,-0.1497 -0.0796,-0.2694 -0.1435,-0.3892 -0.1276,-0.2394 -0.3509,-0.419 -0.6379,-0.5837 -0.3029,-0.1496 -0.7018,-0.2244 -1.1961,-0.2244 -0.3828,0 -0.7336,0.0299 -1.0686,0.0897 -0.3189,0.0749 -0.6539,0.1497 -0.9729,0.2695 v -0.9429 c 0.1117,-0.0599 0.2712,-0.1048 0.4306,-0.1646 0.1755,-0.045 0.351,-0.0899 0.5423,-0.1347 0.1755,-0.03 0.3828,-0.0599 0.5901,-0.0748 0.2073,-0.0151 0.4148,-0.0301 0.6221,-0.0301 0.7496,0 1.3555,0.1198 1.8339,0.3742 0.4785,0.2395 0.8134,0.5688 1.0208,0.9878 0.0796,0.1497 0.1434,0.3293 0.1752,0.5089 0.0321,0.1946 0.048,0.3891 0.048,0.6136 v 4.6395 h -1.0207 z m -0.0639,-2.2899 c -0.2231,-0.0598 -0.4782,-0.1198 -0.7973,-0.1646 -0.303,-0.0598 -0.6378,-0.0898 -1.0047,-0.0898 -0.5105,0 -0.9091,0.1047 -1.212,0.2993 -0.2872,0.2095 -0.4307,0.5238 -0.4307,0.9579 0,0.2095 0.0319,0.4041 0.1117,0.5538 0.0638,0.1646 0.1755,0.2992 0.303,0.404 0.1276,0.1048 0.2711,0.1796 0.4466,0.2394 0.1754,0.045 0.3508,0.0749 0.5582,0.0749 0.2551,0 0.4943,-0.0299 0.7176,-0.1048 0.2233,-0.0748 0.4306,-0.1646 0.5901,-0.2543 0.1755,-0.1049 0.3349,-0.1946 0.4466,-0.2994 0.1275,-0.0897 0.2231,-0.1647 0.2709,-0.2245 z"
     style="fill:#37b385;fill-rule:evenodd"
     id="path50"
     inkscape:connector-curvature="0" />
</svg>
